<svg width="20" height="21" viewBox="0 0 20 21" fill="none" xmlns="http://www.w3.org/2000/svg">
<path d="M6.78756 7.28749H6.79584M1.81818 4.96845L1.81818 8.67438C1.81818 9.07953 1.81818 9.28211 1.86394 9.47275C1.90452 9.64177 1.97145 9.80335 2.06227 9.95155C2.16471 10.1187 2.30795 10.262 2.59444 10.5484L8.94583 16.8998C9.92981 17.8838 10.4218 18.3758 10.9891 18.5601C11.4882 18.7223 12.0257 18.7223 12.5247 18.5601C13.0921 18.3758 13.5841 17.8838 14.568 16.8998L16.3999 15.068C17.3839 14.084 17.8759 13.592 18.0602 13.0247C18.2223 12.5257 18.2223 11.9881 18.0602 11.4891C17.8759 10.9217 17.3839 10.4297 16.3999 9.44577L10.0485 3.09438C9.76202 2.80789 9.61878 2.66465 9.45161 2.56221C9.30341 2.47139 9.14183 2.40446 8.97281 2.36388C8.78217 2.31812 8.57959 2.31812 8.17444 2.31812L4.46851 2.31812C3.54081 2.31812 3.07696 2.31812 2.72262 2.49866C2.41094 2.65747 2.15753 2.91088 1.99872 3.22256C1.81818 3.57689 1.81818 4.04075 1.81818 4.96845ZM7.20167 7.28749C7.20167 7.5162 7.01627 7.70161 6.78756 7.70161C6.55885 7.70161 6.37344 7.5162 6.37344 7.28749C6.37344 7.05879 6.55885 6.87338 6.78756 6.87338C7.01627 6.87338 7.20167 7.05879 7.20167 7.28749Z" stroke="white" stroke-width="1.5" stroke-linecap="round" stroke-linejoin="round"/>
</svg>
